<svg xmlns="http://www.w3.org/2000/svg" width="331.502" height="165.561" viewBox="0 0 331.502 165.561">
  <g id="Group_32" data-name="Group 32" transform="translate(-11938.855 -4111.081)">
    <rect id="Rectangle_108" data-name="Rectangle 108" width="149" height="46" rx="10" transform="translate(11938.855 4134.39) rotate(-9)" fill="rgba(193,193,193,0.37)"/>
    <rect id="Rectangle_109" data-name="Rectangle 109" width="169" height="41" rx="10" transform="translate(12103.002 4135.581) rotate(8)" fill="rgba(193,193,193,0.27)"/>
    <path id="Path_18" data-name="Path 18" d="M8.114,0,188.88.588a8.129,8.129,0,0,1,8.171,8.006l.107,29.525a8,8,0,0,1-8.114,7.953L8.278,45.484A8.129,8.129,0,0,1,.107,37.478L0,7.953A8,8,0,0,1,8.114,0Z" transform="translate(11946.73 4220.314) rotate(3)" fill="rgba(193,193,193,0.37)"/>
    <text id="Puesto1" transform="matrix(0.995, -0.105, 0.105, 0.995, 12011.572, 4150.917)" fill="#0c2657" font-size="17" font-family="KristenITC-Regular, Kristen ITC"><tspan x="-33.187" y="0">Puesto1</tspan></text>
    <text id="Puesto2" transform="translate(12021 4239)" fill="#1f7ebb" font-size="26" font-family="KristenITC-Regular, Kristen ITC"><tspan x="-51.276" y="0">Puesto2</tspan></text>
    <text id="Puesto3" transform="translate(12172.021 4188.001) rotate(7)" fill="#00b400" font-size="22" font-family="KristenITC-Regular, Kristen ITC"><tspan x="-42.947" y="0">Puesto3</tspan></text>
  </g>
</svg>
