<?xml version="1.0" standalone="no"?>
<!DOCTYPE svg PUBLIC "-//W3C//DTD SVG 20010904//EN"
 "http://www.w3.org/TR/2001/REC-SVG-20010904/DTD/svg10.dtd">
<svg version="1.0" xmlns="http://www.w3.org/2000/svg"
 width="841.000000pt" height="342.000000pt" viewBox="0 0 841.000000 342.000000"
 preserveAspectRatio="xMidYMid meet">
<metadata>
Created by potrace 1.16, written by Peter Selinger 2001-2019
</metadata>
<g transform="translate(0.000000,342.000000) scale(0.100000,-0.100000)"
fill="#000000" stroke="none">
<path d="M2030 2392 c0 -447 0 -459 -20 -480 -14 -14 -33 -22 -55 -22 l-35 0
0 -101 0 -102 135 6 c163 7 207 23 246 90 l24 42 3 513 4 512 -151 0 -151 0 0
-458z"/>
<path d="M3190 2270 l0 -580 134 0 134 0 6 35 c8 42 13 43 45 9 39 -41 81 -57
146 -57 94 0 162 48 185 131 6 22 10 173 10 377 0 313 -2 343 -19 382 -14 30
-31 48 -63 64 -82 42 -218 24 -267 -35 -8 -9 -17 -16 -22 -16 -5 0 -9 61 -9
135 l0 135 -140 0 -140 0 0 -580z m367 190 c14 -27 17 -542 4 -590 -5 -17 -15
-26 -32 -28 -52 -6 -54 6 -54 322 0 160 3 299 7 309 11 27 59 19 75 -13z"/>
<path d="M3960 2270 l0 -580 145 0 145 0 0 580 0 580 -145 0 -145 0 0 -580z"/>
<path d="M4380 2378 c1 -371 4 -481 14 -511 45 -126 159 -191 336 -190 47 0
104 5 127 12 68 19 133 70 167 131 l31 55 3 488 3 487 -145 0 -145 0 -3 -473
c-3 -513 -3 -511 -57 -505 -17 2 -27 11 -32 28 -4 14 -7 233 -8 488 l-1 462
-145 0 -145 0 0 -472z"/>
<path d="M2668 2650 c-62 -11 -144 -57 -175 -97 -47 -61 -56 -112 -61 -349 -7
-373 24 -467 171 -508 170 -48 351 -14 423 81 55 72 58 90 62 354 3 163 0 265
-8 302 -19 96 -84 168 -179 202 -50 17 -174 26 -233 15z m133 -195 c9 -41 9
-554 0 -585 -5 -17 -15 -26 -32 -28 -52 -6 -54 6 -54 323 0 317 2 329 54 323
20 -2 27 -10 32 -33z"/>
<path d="M4521 1220 c-119 -25 -207 -123 -226 -253 -15 -101 16 -176 89 -214
43 -22 157 -22 222 0 51 18 52 18 67 77 8 33 13 60 11 60 -2 0 -24 -14 -49
-32 -57 -41 -147 -51 -183 -22 -49 40 -47 162 4 235 54 78 164 92 228 30 17
-17 35 -31 38 -31 6 0 28 88 28 111 0 30 -150 55 -229 39z"/>
<path d="M2945 1198 c-3 -13 -25 -111 -50 -218 -25 -107 -47 -205 -50 -217 -5
-22 -2 -23 54 -23 l59 0 24 103 23 102 102 3 102 3 11 37 c5 20 10 40 10 45 0
4 -45 7 -100 7 l-101 0 7 38 c4 20 9 40 11 45 2 4 53 7 113 7 l108 0 6 28 c4
15 9 35 12 45 5 16 -7 17 -165 17 -169 0 -171 0 -176 -22z"/>
<path d="M3450 1101 c-102 -22 -164 -93 -175 -203 -12 -104 49 -164 165 -162
76 1 131 25 178 78 73 83 69 231 -7 270 -35 19 -115 27 -161 17z m94 -93 c45
-64 -17 -198 -90 -198 -45 0 -64 22 -64 76 0 87 42 144 107 144 22 0 37 -7 47
-22z"/>
<path d="M4918 1097 c-103 -29 -158 -105 -158 -218 0 -104 44 -142 161 -143
133 0 219 79 227 208 7 105 -30 149 -134 160 -27 3 -70 0 -96 -7z m106 -89
c46 -65 -14 -198 -88 -198 -43 0 -66 25 -66 74 0 48 30 119 57 135 32 19 80
13 97 -11z"/>
<path d="M5456 1095 c-21 -7 -43 -18 -49 -24 -18 -18 -29 -13 -22 9 6 18 2 20
-49 20 -43 0 -56 -4 -60 -17 -9 -29 -76 -323 -76 -334 0 -5 24 -9 53 -9 l54 0
27 123 c31 135 45 157 102 157 54 0 57 -19 25 -158 l-28 -122 56 0 56 0 29
129 c27 120 31 131 56 141 15 6 41 10 56 8 23 -2 30 -9 32 -31 3 -23 -24 -160
-44 -230 -5 -16 0 -18 52 -15 l57 3 28 120 c34 145 36 188 10 214 -36 36 -85
37 -154 3 -60 -31 -62 -31 -77 -12 -15 19 -60 40 -83 40 -7 -1 -29 -7 -51 -15z"/>
<path d="M6147 1096 c-20 -8 -44 -19 -52 -26 -13 -10 -15 -9 -15 9 0 19 -6 21
-53 21 l-53 0 -43 -187 c-23 -104 -48 -214 -56 -246 l-13 -58 56 3 57 3 14 65
c7 36 15 67 17 69 1 2 25 -2 52 -9 130 -31 252 81 252 233 0 71 -19 111 -61
126 -40 14 -55 13 -102 -3z m37 -98 c19 -27 20 -40 5 -92 -17 -61 -58 -96
-113 -96 -24 0 -47 3 -49 8 -3 4 4 47 15 95 23 96 31 105 95 106 22 1 37 -6
47 -21z"/>
<path d="M6497 1100 c-27 -5 -51 -11 -54 -14 -6 -5 -22 -86 -18 -86 1 0 19 7
40 15 50 21 144 17 159 -8 14 -23 -6 -37 -56 -37 -126 0 -218 -59 -218 -138 0
-29 7 -49 24 -69 20 -24 31 -27 78 -27 38 0 65 6 91 22 36 21 37 21 37 2 0
-17 7 -20 53 -20 l53 0 28 124 c32 146 32 191 -4 217 -30 22 -141 32 -213 19z"/>
<path d="M7056 1095 c-21 -7 -43 -18 -49 -24 -18 -18 -29 -13 -22 9 6 18 2 20
-49 20 -43 0 -56 -4 -60 -17 -9 -29 -76 -323 -76 -334 0 -5 24 -9 53 -9 l54 0
28 126 c32 141 44 158 111 152 53 -4 56 -23 24 -160 l-27 -118 56 0 56 0 28
123 c40 178 36 215 -24 236 -40 14 -55 13 -103 -4z"/>
<path d="M7675 1101 c-45 -12 -87 -36 -116 -68 -38 -40 -48 -63 -54 -124 -14
-130 91 -198 260 -168 69 12 77 19 90 76 l6 33 -47 -21 c-64 -29 -158 -23
-185 10 -11 13 -19 32 -19 42 0 18 9 19 134 19 152 0 146 -3 146 83 0 55 -17
85 -56 106 -30 14 -122 22 -159 12z"/>
<path d="M8090 1101 c-80 -17 -130 -61 -130 -114 0 -58 31 -84 127 -107 61
-14 82 -32 63 -55 -18 -22 -124 -19 -177 5 l-42 19 -9 -42 c-5 -23 -6 -45 -3
-49 3 -4 38 -12 78 -18 119 -19 227 11 258 70 39 75 0 120 -128 151 -52 13
-67 30 -47 54 18 21 106 19 156 -4 l41 -19 10 45 c10 41 9 45 -11 53 -34 13
-147 19 -186 11z"/>
<path d="M3795 1088 c-3 -7 -22 -88 -43 -180 l-39 -168 56 0 57 0 24 111 c13
61 30 118 38 126 11 10 33 14 78 11 l63 -3 11 48 c5 26 10 53 10 59 0 14 -65
1 -113 -24 l-40 -20 5 26 c5 25 4 26 -49 26 -34 0 -55 -5 -58 -12z"/>
<path d="M7346 1083 c-9 -29 -76 -323 -76 -334 0 -5 25 -9 55 -9 30 0 55 3 55
6 0 8 69 314 76 337 5 15 -2 17 -50 17 -43 0 -56 -4 -60 -17z"/>
</g>
</svg>
